<?xml version="1.0" encoding="UTF-8"?>
<svg id="Layer_2" xmlns="http://www.w3.org/2000/svg" viewBox="0 0 613.58 717.88">
  <defs>
    <style>
      .cls-1 {
        fill: #0f0fa1;
      }
    </style>
  </defs>
  <g id="Layer_1-2" data-name="Layer_1">
    <path class="cls-1" d="M95.53,158.15h102.5c174.68,0,316.5,141.82,316.5,316.5v102.5h-102.5c-174.68,0-316.5-141.82-316.5-316.5v-102.5h0Z" transform="translate(780.69 411.93) rotate(135)"/>
    <path class="cls-1" d="M7.36,355.54s-52.32-148.33,122.09-183.28C303.86,137.32,293.33,0,293.33,0c0,0,28.49,157.87-200.17,236.63-49.42,17.02-83.67,62.34-85.67,114.57-.05,1.43-.1,2.87-.14,4.34Z"/>
    <path class="cls-1" d="M403.39,717.88s79.48-157.14-101.93-117.75c-181.41,39.39-148.45-90.57-148.45-90.57,0,0-55.45,156.11,177.18,134.62,50.28-4.64,79.83,22.8,73.74,69.78-.17,1.28-.35,2.59-.54,3.91Z"/>
    <circle class="cls-1" cx="472.03" cy="509.57" r="10.47"/>
    <circle class="cls-1" cx="591.58" cy="432.32" r="22"/>
    <circle class="cls-1" cx="335.36" cy="29.22" r="22"/>
  </g>
</svg>