<?xml version="1.0" encoding="UTF-8"?>
<svg id="Layer_2" xmlns="http://www.w3.org/2000/svg" viewBox="0 0 658.1 636.18">
  <defs>
    <style>
      .cls-1 {
        fill: #0f0fa1;
      }
    </style>
  </defs>
  <g id="Layer_1-2" data-name="Layer_1">
    <path class="cls-1" d="M468.83,24.15h102.5v102.5c0,174.68-141.82,316.5-316.5,316.5h-102.5v-102.5c0-174.68,141.82-316.5,316.5-316.5Z" transform="translate(271.2 -187.41) rotate(45)"/>
    <path class="cls-1" d="M450.78,83.74s-61.09-144.94-213.64-53.45C84.6,121.78,0,13.11,0,13.11c0,0,85.13,135.96,307.3,40.39,48.02-20.66,103.84-10.17,140.46,27.12,1,1.02,2.01,2.06,3.02,3.12Z"/>
    <path class="cls-1" d="M208.51,636.18s-43.12-199.14,186.71-215.7c229.83-16.56,238.63-194.74,238.63-194.74,0,0,10.95,207.52-295.73,271.57-66.28,13.84-117.66,66.51-128.73,133.31-.3,1.82-.6,3.68-.88,5.55Z"/>
    <circle class="cls-1" cx="552.6" cy="95.77" r="22"/>
    <circle class="cls-1" cx="31.27" cy="233.65" r="22"/>
    <circle class="cls-1" cx="609.49" cy="140.22" r="22"/>
  </g>
</svg>