<?xml version="1.0" encoding="UTF-8"?>
<svg xmlns="http://www.w3.org/2000/svg" viewBox="0 0 186.44 214.84" styles="width: 300px">
  <defs>
    <style>
      .cls-1 {
        fill: #fff;
      }

      .cls-2 {
        isolation: isolate;
      }

      .cls-3 {
        mix-blend-mode: normal;
      }
    </style>
  </defs>
  <g class="cls-2">
    <g id="Layer_2">
      <g id="Layer_1-2" data-name="Layer_1">
        <g class="cls-3">
          <path class="cls-1" d="M23.36,51.27c4.17.33,8.44-.37,12.36-2.13,3.24,2.37,6.21,5.08,8.87,8.01.56.58,1.1,1.18,1.61,1.78-2.96,3.91-4.65,8.53-5.02,13.23-.51,6.47,1.44,13.12,5.98,18.45,2.59-2.21,4.63-4.85,6.1-7.7.36,1.86.86,3.62,1.61,5.16,1.05,2.38,2.67,4.29,4.48,6.1,5.48,5.66,11.9,9.79,19.07,13.49,4.82,2.5,9.82,4.86,14.45,7.52,13.63,7.6,23.64,19.31,32.49,31.82,5.8,8.28,12.21,16.02,19.02,23.46,13.4,15.02,26.99,29.9,41.21,44.23.17.18.45.21.65.06.22-.16.26-.48.11-.71-11.92-16.3-24.46-32.05-37.18-47.66-6.26-7.91-12.91-15.46-20.16-22.48-10.95-10.71-20.94-22.44-26.29-37.11-1.91-4.98-3.45-10.3-5.16-15.45-2.52-7.67-5.6-14.65-10.31-20.96-1.51-2.06-3.13-3.98-5.32-5.39-1.42-.99-3.09-1.76-4.89-2.42,3.09-1,6.04-2.61,8.67-4.84-4.54-5.33-10.81-8.3-17.27-8.82-4.74-.37-9.59.58-13.94,2.91-.51-.59-1.01-1.22-1.49-1.86-2.46-3.1-4.68-6.46-6.5-10.01,2.39-3.61,3.77-7.74,4.1-11.94.51-6.46-1.44-13.12-5.98-18.44-1.7,1.45-3.15,3.07-4.37,4.82C34.55-4.96,4.75-5.51.29,17.1c-1.54,9.17,3.24,17.93,11.16,21.85-1.89.91-3.69,2.08-5.36,3.5,4.54,5.32,10.8,8.31,17.27,8.81ZM86.74,97.98c-6.97-.56-13.06-3.88-17.27-8.81-4.21-4.93-6.52-11.47-5.98-18.44,13.95,1.1,24.36,13.3,23.25,27.25Z"/>
        </g>
      </g>
    </g>
  </g>
</svg>